# xmcd CD database file
#
# Track frame offsets:
#	150
#	13707
#	25797
#	42430
#	55880
#	73032
#	86320
#	100837
#	115802
#	130705
#	147270
#
# Disc length: 2293 seconds
#
# Revision: 1
# Processed by: cddbd v1.5.2PL0 Copyright (c) Steve Scherf et al.
# Submitted via: CDex 1.70beta3
#
DISCID=8c08f30b
DTITLE=三枝成彰 - 鉄腕アトム OST
DYEAR=1900
DGENRE=Anime
TTITLE0=アトムズ/鉄腕アトム
TTITLE1=ANKH/僕らは愛のメッセンジャー
TTITLE2=遙かなる星雲へ
TTITLE3=アトラス寺西/裏返しの友情
TTITLE4=スクランブル・ロケット
TTITLE5=ANKH/未来に向って
TTITLE6=ANKH/鉄腕アトム
TTITLE7=ウランズ/ウランのテーマ
TTITLE8=ブラック・スペースの斗い -アトム vs. アトラス-
TTITLE9=ANKH/翼あるものたち
TTITLE10=高井達雄/新世界の夜明け
EXTD=
EXTT0=
EXTT1=
EXTT2=
EXTT3=
EXTT4=
EXTT5=
EXTT6=
EXTT7=
EXTT8=
EXTT9=
EXTT10=
PLAYORDER=
